<svg width="108" height="108" viewBox="0 0 52 52" fill="none" xmlns="http://www.w3.org/2000/svg">
<!-- <circle cx="26" cy="26" r="25" stroke="#94CC50" stroke-width="2"/> -->
<path fill-rule="evenodd" clip-rule="evenodd" d="M17 22.827C17 17.968 21.01 14 26 14C30.99 14 35 17.968 35 22.827V24.083C34.67 24.029 34.34 24 34 24H33C31.34 24 30 25.343 30 27V33C30 34.66 31.34 36 33 36L32.1001 37.2C31.7201 37.7 31.13 38 30.5 38H26C25.45 38 25 38.45 25 39C25 39.55 25.45 40 26 40H30.5C31.76 40 32.94 39.41 33.7 38.4L35.6799 35.76C38.1799 35.04 40 32.73 40 30C40 27.779 38.79 25.84 37 24.803V22.827C37 16.831 32.06 12 26 12C19.94 12 15 16.831 15 22.827V24.803C13.21 25.84 12 27.779 12 30C12 33.31 14.69 36 18 36H19C20.66 36 22 34.66 22 33V27C22 25.343 20.66 24 19 24H18C17.66 24 17.33 24.029 17 24.083V22.827ZM18 26H19C19.55 26 20 26.448 20 27V33C20 33.55 19.55 34 19 34H18C15.79 34 14 32.21 14 30C14 27.791 15.79 26 18 26ZM33 26H34C36.21 26 38 27.791 38 30C38 32.21 36.21 34 34 34H33C32.45 34 32 33.55 32 33V27C32 26.448 32.45 26 33 26Z" fill="#94CC50"/>
</svg>
