<svg width="63" height="92" viewBox="0 0 38 41" fill="none" xmlns="http://www.w3.org/2000/svg">
<path d="M21.9535 5.3543L26.5108 9.28573H21.9535V5.3543ZM30.7632 33.376C29.832 33.376 29.0738 34.1244 29.0738 35.0538V36.9455H4.0044V3.35569H18.5829V10.9553C18.5829 11.8847 19.3411 12.6332 20.2723 12.6332H29.0821V22.7003C29.0821 23.6297 29.8402 24.3781 30.7715 24.3781C31.7027 24.3781 32.4609 23.6297 32.4609 22.7003V10.7251C32.4609 10.2398 32.2466 9.77099 31.8758 9.45845L21.3766 0.411237C21.0717 0.148045 20.6761 0 20.2723 0H2.32321C1.39197 0 0.633789 0.748451 0.633789 1.67785V38.6234C0.633789 39.5528 1.39197 40.3012 2.32321 40.3012H30.7715C31.7027 40.3012 32.4609 39.5528 32.4609 38.6234V35.0538C32.4527 34.1244 31.6945 33.376 30.7632 33.376Z" fill="black"/>
<path d="M37.7099 25.2088C37.6274 24.2877 36.8033 23.605 35.8803 23.6873C32.0729 24.0245 28.4551 28.178 26.5926 30.703L25.4965 29.461C24.8785 28.7619 23.8154 28.6961 23.1149 29.313C22.4144 29.9298 22.3484 30.9908 22.9665 31.6817L25.4965 34.5439C26.4855 35.5227 27.5733 35.3417 28.1914 34.3218C29.2957 32.5042 33.1937 27.2979 36.177 27.0347C37.1083 26.9443 37.7923 26.13 37.7099 25.2088Z" fill="black"/>
<path d="M9.06605 27H6.10014L10.6193 13.9091H14.1861L18.6989 27H15.733L12.4538 16.9006H12.3516L9.06605 27ZM8.88068 21.8544H15.8864V24.0149H8.88068V21.8544ZM25.2779 13.9091V27H22.5101V16.5362H22.4334L19.4355 18.4155V15.9609L22.6763 13.9091H25.2779Z" fill="black"/>
</svg>
