<svg width="60" height="60" viewBox="0 0 60 60" fill="none" xmlns="http://www.w3.org/2000/svg">
<path d="M32.3197 15.3543L36.8771 19.2857H32.3197V15.3543ZM41.1295 43.376C40.1982 43.376 39.44 44.1244 39.44 45.0538V46.9455H14.3706V13.3557H28.9491V20.9553C28.9491 21.8847 29.7073 22.6332 30.6385 22.6332H39.4483V32.7003C39.4483 33.6297 40.2065 34.3781 41.1377 34.3781C42.0689 34.3781 42.8271 33.6297 42.8271 32.7003V20.7251C42.8271 20.2398 42.6129 19.771 42.242 19.4584L31.7428 10.4112C31.4379 10.148 31.0424 10 30.6385 10H12.6894C11.7582 10 11 10.7485 11 11.6778V48.6234C11 49.5528 11.7582 50.3012 12.6894 50.3012H41.1377C42.0689 50.3012 42.8271 49.5528 42.8271 48.6234V45.0538C42.8189 44.1244 42.0607 43.376 41.1295 43.376Z" fill="black"/>
<path d="M48.0761 35.209C47.9937 34.2878 47.1695 33.6051 46.2465 33.6874C42.4392 34.0246 38.8213 38.1781 36.9588 40.7031L35.8628 39.4611C35.2447 38.762 34.1816 38.6962 33.4811 39.3131C32.7806 39.93 32.7147 40.9909 33.3327 41.6818L35.8628 44.544C36.8517 45.5228 37.9395 45.3418 38.5576 44.322C39.6619 42.5043 43.5599 37.298 46.5432 37.0349C47.4745 36.9444 48.1585 36.1301 48.0761 35.209Z" fill="black"/>
<path d="M19.4323 37H16.4664L20.9855 23.9091H24.5523L29.0651 37H26.0992L22.82 26.9006H22.7178L19.4323 37ZM19.2469 31.8544H26.2526V34.0149H19.2469V31.8544ZM35.6441 23.9091V37H32.8763V26.5362H32.7996L29.8018 28.4155V25.9609L33.0425 23.9091H35.6441Z" fill="black"/>
</svg>
