<svg width="60" height="60" viewBox="0 0 60 60" fill="none" xmlns="http://www.w3.org/2000/svg">
<g clip-path="url(#clip0_226_258)">
<path d="M58.0247 26.0531H55.2513L48.5654 14.4019H23.7529L14.4172 26.0531H2.93696C1.12418 26.0531 -0.254762 27.6721 0.0398475 29.4616L1.8061 40.222C1.8061 40.3071 1.87571 40.3847 1.96102 40.3847H9.50637C9.89368 37.0147 12.76 34.3887 16.2305 34.3887C19.701 34.3887 22.5675 37.0147 22.9548 40.3847H40.2457C40.633 37.0147 43.4995 34.3887 46.97 34.3887C50.4406 34.3887 53.3068 37.0147 53.6944 40.3847H58.0248C59.117 40.3847 60.0001 39.5014 60.0001 38.4091V28.0283C60 26.9362 59.117 26.0531 58.0247 26.0531ZM38.4251 19.05H45.2109L49.4177 26.0531L49.5647 26.4878L49.5961 26.6031H38.4251V19.05ZM21.0765 26.5926L21.2967 26.0531L26.8982 19.05H33.111V26.6032H24.3676L21.0765 26.5926Z" fill="black"/>
<path d="M16.2305 36.7129C14.0382 36.7129 12.2177 38.301 11.8538 40.3848C11.8071 40.6326 11.7837 40.896 11.7837 41.1596C11.7837 43.6075 13.7747 45.5984 16.2304 45.5984C18.6863 45.5984 20.6772 43.6074 20.6772 41.1596C20.6772 40.8961 20.6539 40.6327 20.6075 40.3848C20.2434 38.3009 18.4229 36.7129 16.2305 36.7129Z" fill="black"/>
<path d="M46.9699 36.7129C44.7775 36.7129 42.957 38.301 42.593 40.3848C42.5463 40.6326 42.5231 40.896 42.5231 41.1596C42.5231 43.6075 44.5139 45.5984 46.9698 45.5984C49.4255 45.5984 51.4164 43.6074 51.4164 41.1596C51.4164 40.8961 51.3932 40.6327 51.3468 40.3848C50.9828 38.3009 49.1623 36.7129 46.9699 36.7129Z" fill="black"/>
</g>
<defs>
<clipPath id="clip0_226_258">
<rect width="60" height="60" fill="white"/>
</clipPath>
</defs>
</svg>
