  <svg
              xmlns="http://www.w3.org/2000/svg"
              width="63"
              height="92"
              viewBox="0 0 63 92"
              fill="none">
              <path
                d="M50.7721 0H11.3191C5.06619 0.0014375 0.00121875 5.97569 0 13.3522V78.6492C0.00121875 86.0214 5.06619 91.9969 11.3191 92H50.7719C57.0249 91.9969 62.0898 86.0216 62.091 78.6492V13.3522C62.09 5.97569 57.025 0.0014375 50.7721 0ZM57.0226 78.6492C57.0214 80.6941 56.327 82.5186 55.1923 83.8614C54.0526 85.2013 52.5057 86.0186 50.7721 86.0216H11.3191C9.58547 86.0186 8.03857 85.2013 6.89889 83.8614C5.76408 82.5186 5.06985 80.6941 5.06863 78.6492V13.3522C5.06985 11.3059 5.76408 9.48139 6.89889 8.13715C8.03857 6.79866 9.5841 5.98 11.3191 5.97838H50.7719C52.5069 5.97982 54.0525 6.79866 55.1922 8.13715C56.3268 9.48157 57.0212 11.3059 57.0224 13.3522V78.6492H57.0226Z"
                fill="black" />
              <path
                d="M11 18.5509L11 73.4493C11 74.856 12.1442 76.0002 13.5505 76.0002H20.222H30.7199H49.3504C50.7567 76.0002 51.9009 74.856 51.9009 73.4493V18.5509C51.9009 17.1444 50.7567 16 49.3504 16H30.7199H20.222H13.5505C12.1442 16.0002 11 17.1444 11 18.5509ZM44.3562 66.3654V68.9217H36.3464V66.3654H44.3562ZM44.3562 61.2528V63.8091H36.3464V61.2528H44.3562ZM44.3562 56.1402V58.6965H36.3464V56.1402H44.3562ZM45.589 28.4907C45.589 29.4316 45.3076 30.3357 44.7857 31.1007C45.3075 31.8657 45.589 32.77 45.589 33.7109C45.589 36.2706 43.5065 38.353 40.9466 38.353C38.3867 38.353 36.3041 36.2706 36.3041 33.7109C36.3041 32.77 36.5855 31.8657 37.1075 31.1007C36.5855 30.3357 36.3041 29.4316 36.3041 28.4907C36.3041 25.9308 38.3867 23.8481 40.9466 23.8481C43.5063 23.8479 45.589 25.9306 45.589 28.4907ZM29.0159 17.7044L29.0159 74.296H21.9264L21.9264 17.7044H29.0159Z"
                fill="black" />
            </svg>