<svg
        id="closeP"
        xmlns="http://www.w3.org/2000/svg"
        width="55"
        height="55"
        viewBox="0 0 55 55"
        fill="none">
        <path
          d="M17.5096 21.0454C16.5333 20.0691 16.5333 18.4862 17.5096 17.5099C18.4859 16.5336 20.0688 16.5336 21.0451 17.5099L27.5142 23.979L33.9767 17.5164C34.9532 16.5401 36.5359 16.5401 37.5122 17.5164C38.4887 18.4928 38.4887 20.0757 37.5122 21.052L31.0497 27.5145L37.5097 33.9743C38.4859 34.9508 38.4859 36.5335 37.5097 37.5098C36.5332 38.4863 34.9504 38.4863 33.9739 37.5098L27.5142 31.05L21.0524 37.512C20.0761 38.4883 18.4931 38.4883 17.5168 37.512C16.5405 36.5355 16.5405 34.9528 17.5168 33.9763L23.9787 27.5145L17.5096 21.0454Z"
          fill="#ffffffa3" />
        <path
        id="circle"
          fill-rule="evenodd"
          clip-rule="evenodd"
          d="M55 27.5C55 42.6877 42.6877 55 27.5 55C12.3122 55 0 42.6877 0 27.5C0 12.3122 12.3122 0 27.5 0C42.6877 0 55 12.3122 55 27.5ZM5.01707 27.5C5.01707 39.917 15.083 49.983 27.5 49.983C39.917 49.983 49.983 39.917 49.983 27.5C49.983 15.083 39.917 5.01707 27.5 5.01707C15.083 5.01707 5.01707 15.083 5.01707 27.5Z"
          fill="#ffffffa3" />
      </svg>