     <svg
            xmlns="http://www.w3.org/2000/svg"
            width="100"
            height="100"
            viewBox="0 0 100 100"
            fill="none">
            <path
              fill-rule="evenodd"
              clip-rule="evenodd"
              d="M50 0C22.3858 0 0 22.3858 0 50C0 77.6142 22.3858 100 50 100C77.6142 100 100 77.6142 100 50C100 22.3858 77.6142 0 50 0ZM38.5902 23.0778C41.4341 22.9484 42.3432 22.9167 49.5817 22.9167C56.8224 22.9167 57.7281 22.9484 60.5721 23.0778C63.411 23.2078 65.3499 23.6572 67.0499 24.3167C68.8055 24.9972 70.2888 25.9084 71.7722 27.3917C73.2555 28.874 74.1666 30.3617 74.85 32.1157C75.5056 33.8112 75.9556 35.749 76.0889 38.5879C76.2167 41.4324 76.25 42.3413 76.25 49.5836C76.25 56.8259 76.2167 57.7326 76.0889 60.5771C75.9556 63.4149 75.5056 65.3532 74.85 67.0493C74.1666 68.8027 73.2555 70.2905 71.7722 71.7727C70.2905 73.2561 68.8049 74.1694 67.0516 74.8505C65.3549 75.51 63.4149 75.9594 60.5759 76.0894C57.7315 76.2189 56.8254 76.2506 49.5825 76.2506C42.3408 76.2506 41.4324 76.2189 38.5879 76.0894C35.7496 75.9594 33.8112 75.51 32.1145 74.8505C30.3617 74.1694 28.874 73.2561 27.3923 71.7727C25.9095 70.2905 24.9984 68.8027 24.3167 67.0488C23.6578 65.3532 23.2083 63.4154 23.0778 60.5765C22.9489 57.732 22.9167 56.8259 22.9167 49.5836C22.9167 42.3413 22.95 41.4319 23.0772 38.5874C23.205 35.7496 23.655 33.8112 24.3161 32.1151C24.9995 30.3617 25.9106 28.874 27.3939 27.3917C28.8762 25.9089 30.364 24.9978 32.1179 24.3167C33.8134 23.6572 35.7512 23.2078 38.5902 23.0778ZM49.5817 22.9167C49.5831 22.9167 49.5844 22.9167 49.5858 22.9167H49.5775C49.5789 22.9167 49.5803 22.9167 49.5817 22.9167Z"
              fill="black" />
            <path
              fill-rule="evenodd"
              clip-rule="evenodd"
              d="M47.6102 28.139C48.0747 28.1383 48.5744 28.1385 49.1137 28.1387L50.0025 28.139C57.1225 28.139 57.9664 28.1645 60.7781 28.2923C63.3782 28.4112 64.7893 28.8457 65.7293 29.2107C66.9737 29.694 67.861 30.2718 68.7938 31.2051C69.7271 32.1385 70.3049 33.0274 70.7893 34.2718C71.1543 35.2107 71.5893 36.6219 71.7077 39.2219C71.8355 42.033 71.8632 42.8775 71.8632 49.9942C71.8632 57.111 71.8355 57.9554 71.7077 60.7666C71.5888 63.3666 71.1543 64.7777 70.7893 65.7166C70.306 66.9611 69.7271 67.8472 68.7938 68.78C67.8604 69.7133 66.9743 70.2911 65.7293 70.7744C64.7904 71.1411 63.3782 71.5744 60.7781 71.6933C57.967 71.8211 57.1225 71.8489 50.0025 71.8489C42.8818 71.8489 42.0379 71.8211 39.2268 71.6933C36.6268 71.5733 35.2156 71.1389 34.2751 70.7739C33.0306 70.2905 32.1417 69.7128 31.2084 68.7794C30.275 67.8461 29.6972 66.9594 29.2128 65.7144C28.8478 64.7755 28.4128 63.3644 28.2944 60.7643C28.1667 57.9532 28.1411 57.1087 28.1411 49.9876C28.1411 42.8664 28.1667 42.0264 28.2944 39.2152C28.4133 36.6152 28.8478 35.2041 29.2128 34.2641C29.6961 33.0196 30.275 32.1307 31.2084 31.1974C32.1417 30.264 33.0306 29.6862 34.2751 29.2018C35.2151 28.8351 36.6268 28.4018 39.2268 28.2823C41.6868 28.1712 42.6402 28.1379 47.6102 28.1323V28.139ZM64.2372 32.5669C62.4705 32.5669 61.0372 33.9986 61.0372 35.7658C61.0372 37.5325 62.4705 38.9659 64.2372 38.9659C66.0039 38.9659 67.4373 37.5325 67.4373 35.7658C67.4373 33.9992 66.0039 32.5658 64.2372 32.5658V32.5669ZM36.3078 50.0003C36.3078 42.4375 42.4395 36.3057 50.0024 36.3057H50.0018C57.5647 36.3057 63.6947 42.4375 63.6947 50.0003C63.6947 57.5632 57.5652 63.6921 50.0024 63.6921C42.4395 63.6921 36.3078 57.5632 36.3078 50.0003Z"
              fill="black" />
            <path
              d="M50.0023 41.1112C54.9112 41.1112 58.8912 45.0907 58.8912 50.0002C58.8912 54.9091 54.9112 58.8892 50.0023 58.8892C45.0928 58.8892 41.1133 54.9091 41.1133 50.0002C41.1133 45.0907 45.0928 41.1112 50.0023 41.1112Z"
              fill="black" />
          </svg>