<svg width="60" height="60" viewBox="0 0 60 60" fill="none" xmlns="http://www.w3.org/2000/svg">
<g clip-path="url(#clip0_226_241)">
<path d="M35.5714 42V32.4392C35.5714 31.2865 35.0585 30.1962 34.1775 29.476L30.9286 26.8205M30.9286 26.8205L33.7143 14.4872M30.9286 26.8205L28.1429 24.9231M33.7143 14.4872L30 13.5385M33.7143 14.4872L37.5077 20.6882C38.0498 21.5745 38.9258 22.193 39.9288 22.3982L43 23.0256M28.1429 24.9231L30 13.5385M28.1429 24.9231L27.0288 31.1835C26.6325 33.4103 24.4288 34.7897 22.3071 34.1395L17 32.5128M30 13.5385L24.6246 16.2845C23.3663 16.9273 22.5714 18.2413 22.5714 19.6788V23.0256M36.5 6.89744C36.5 7.94535 35.6686 8.79487 34.6429 8.79487C33.6172 8.79487 32.7857 7.94535 32.7857 6.89744C32.7857 5.84952 33.6172 5 34.6429 5C35.6686 5 36.5 5.84952 36.5 6.89744Z" stroke="black" stroke-width="5" stroke-linecap="round" stroke-linejoin="round"/>
<path d="M14.8608 58.75V50.0227H18.2017C18.8324 50.0227 19.3565 50.1222 19.7741 50.321C20.1946 50.517 20.5085 50.7855 20.7159 51.1264C20.9261 51.4673 21.0312 51.8537 21.0312 52.2855C21.0312 52.6406 20.9631 52.9446 20.8267 53.1974C20.6903 53.4474 20.5071 53.6506 20.277 53.8068C20.0469 53.9631 19.7898 54.0753 19.5057 54.1435V54.2287C19.8153 54.2457 20.1122 54.3409 20.3963 54.5142C20.6832 54.6847 20.9176 54.9261 21.0994 55.2386C21.2813 55.5511 21.3722 55.929 21.3722 56.3722C21.3722 56.8239 21.2628 57.2301 21.044 57.5909C20.8253 57.9489 20.4957 58.2315 20.0554 58.4389C19.6151 58.6463 19.0611 58.75 18.3935 58.75H14.8608ZM16.4418 57.429H18.142C18.7159 57.429 19.1293 57.3196 19.3821 57.1009C19.6378 56.8793 19.7656 56.5952 19.7656 56.2486C19.7656 55.9901 19.7017 55.7571 19.5739 55.5497C19.446 55.3395 19.2642 55.1747 19.0284 55.0554C18.7926 54.9332 18.5114 54.8722 18.1847 54.8722H16.4418V57.429ZM16.4418 53.7344H18.0057C18.2784 53.7344 18.5241 53.6847 18.7429 53.5852C18.9616 53.483 19.1335 53.3395 19.2585 53.1548C19.3864 52.9673 19.4503 52.7457 19.4503 52.4901C19.4503 52.152 19.331 51.8736 19.0923 51.6548C18.8565 51.4361 18.5057 51.3267 18.0398 51.3267H16.4418V53.7344ZM24.5629 58.8821C24.1481 58.8821 23.7745 58.8082 23.4421 58.6605C23.1126 58.5099 22.8512 58.2884 22.658 57.9957C22.4677 57.7031 22.3725 57.3423 22.3725 56.9134C22.3725 56.544 22.4407 56.2386 22.5771 55.9972C22.7134 55.7557 22.8995 55.5625 23.1353 55.4176C23.3711 55.2727 23.6367 55.1634 23.9322 55.0895C24.2305 55.0128 24.5387 54.9574 24.8569 54.9233C25.2404 54.8835 25.5515 54.848 25.7901 54.8168C26.0288 54.7827 26.2021 54.7315 26.31 54.6634C26.4208 54.5923 26.4762 54.483 26.4762 54.3352V54.3097C26.4762 53.9886 26.381 53.7401 26.1907 53.5639C26.0004 53.3878 25.7262 53.2997 25.3683 53.2997C24.9904 53.2997 24.6907 53.3821 24.4691 53.5469C24.2504 53.7116 24.1026 53.9062 24.0259 54.1307L22.5856 53.9261C22.6992 53.5284 22.8867 53.196 23.1481 52.929C23.4094 52.6591 23.729 52.4574 24.1069 52.3239C24.4847 52.1875 24.9023 52.1193 25.3597 52.1193C25.6751 52.1193 25.989 52.1562 26.3015 52.2301C26.614 52.304 26.8995 52.4261 27.158 52.5966C27.4165 52.7642 27.6239 52.9929 27.7802 53.2827C27.9393 53.5724 28.0188 53.9347 28.0188 54.3693V58.75H26.5359V57.8509H26.4847C26.391 58.0327 26.2589 58.2031 26.0884 58.3622C25.9208 58.5185 25.7092 58.6449 25.4535 58.7415C25.2006 58.8352 24.9038 58.8821 24.5629 58.8821ZM24.9634 57.7486C25.2731 57.7486 25.5415 57.6875 25.7688 57.5653C25.9961 57.4403 26.1708 57.2756 26.293 57.071C26.418 56.8665 26.4805 56.6435 26.4805 56.402V55.6307C26.4322 55.6705 26.3498 55.7074 26.2333 55.7415C26.1197 55.7756 25.9918 55.8054 25.8498 55.831C25.7077 55.8565 25.5671 55.8793 25.4279 55.8991C25.2887 55.919 25.168 55.9361 25.0657 55.9503C24.8356 55.9815 24.6296 56.0327 24.4478 56.1037C24.266 56.1747 24.1225 56.2741 24.0174 56.402C23.9123 56.527 23.8597 56.6889 23.8597 56.8878C23.8597 57.1719 23.9634 57.3864 24.1708 57.5312C24.3782 57.6761 24.6424 57.7486 24.9634 57.7486ZM31.1126 54.9148V58.75H29.57V52.2045H31.0444V53.3168H31.1211C31.2717 52.9503 31.5117 52.6591 31.8413 52.4432C32.1737 52.2273 32.5842 52.1193 33.0728 52.1193C33.5245 52.1193 33.918 52.2159 34.2532 52.4091C34.5913 52.6023 34.8526 52.8821 35.0373 53.2486C35.2248 53.6151 35.3171 54.0597 35.3143 54.5824V58.75H33.7717V54.821C33.7717 54.3835 33.658 54.0412 33.4308 53.794C33.2063 53.5469 32.8952 53.4233 32.4975 53.4233C32.2276 53.4233 31.9876 53.483 31.7773 53.6023C31.57 53.7187 31.4066 53.8878 31.2873 54.1094C31.1708 54.331 31.1126 54.5994 31.1126 54.9148ZM38.2887 56.696L38.2844 54.8338H38.5316L40.8839 52.2045H42.6864L39.793 55.4261H39.4734L38.2887 56.696ZM36.8825 58.75V50.0227H38.4251V58.75H36.8825ZM40.9904 58.75L38.8597 55.7713L39.8995 54.6847L42.8356 58.75H40.9904Z" fill="black"/>
</g>
<defs>
<clipPath id="clip0_226_241">
<rect width="60" height="60" fill="white"/>
</clipPath>
</defs>
</svg>
