<svg width="60" height="60" viewBox="0 0 60 60" fill="none" xmlns="http://www.w3.org/2000/svg">
<g clip-path="url(#clip0_226_241)">
<path d="M35.5714 42V32.4392C35.5714 31.2865 35.0585 30.1962 34.1775 29.476L30.9286 26.8205M30.9286 26.8205L33.7143 14.4872M30.9286 26.8205L28.1429 24.9231M33.7143 14.4872L30 13.5385M33.7143 14.4872L37.5077 20.6882C38.0498 21.5745 38.9258 22.193 39.9288 22.3982L43 23.0256M28.1429 24.9231L30 13.5385M28.1429 24.9231L27.0288 31.1835C26.6325 33.4103 24.4288 34.7897 22.3071 34.1395L17 32.5128M30 13.5385L24.6246 16.2845C23.3663 16.9273 22.5714 18.2413 22.5714 19.6788V23.0256M36.5 6.89744C36.5 7.94535 35.6686 8.79487 34.6429 8.79487C33.6172 8.79487 32.7857 7.94535 32.7857 6.89744C32.7857 5.84952 33.6172 5 34.6429 5C35.6686 5 36.5 5.84952 36.5 6.89744Z" stroke="black" stroke-width="5" stroke-linecap="round" stroke-linejoin="round"/>
<path d="M14.8608 58.75V50.0227H18.1335C18.804 50.0227 19.3665 50.1477 19.821 50.3977C20.2784 50.6477 20.6236 50.9915 20.8565 51.429C21.0923 51.8636 21.2102 52.358 21.2102 52.9119C21.2102 53.4716 21.0923 53.9687 20.8565 54.4034C20.6207 54.8381 20.2727 55.1804 19.8125 55.4304C19.3523 55.6776 18.7855 55.8011 18.1122 55.8011H15.9432V54.5014H17.8991C18.2912 54.5014 18.6122 54.4332 18.8622 54.2969C19.1122 54.1605 19.2969 53.973 19.4162 53.7344C19.5384 53.4957 19.5994 53.2216 19.5994 52.9119C19.5994 52.6023 19.5384 52.3295 19.4162 52.0938C19.2969 51.858 19.1108 51.6747 18.858 51.544C18.608 51.4105 18.2855 51.3438 17.8906 51.3438H16.4418V58.75H14.8608ZM25.3192 58.8778C24.663 58.8778 24.0962 58.7415 23.619 58.4688C23.1445 58.1932 22.7795 57.804 22.5238 57.3011C22.2681 56.7955 22.1403 56.2003 22.1403 55.5156C22.1403 54.8423 22.2681 54.2514 22.5238 53.7429C22.7823 53.2315 23.1431 52.8338 23.6062 52.5497C24.0692 52.2628 24.6133 52.1193 25.2383 52.1193C25.6417 52.1193 26.0224 52.1847 26.3803 52.3153C26.7411 52.4432 27.0593 52.642 27.3349 52.9119C27.6133 53.1818 27.832 53.5256 27.9911 53.9432C28.1502 54.358 28.2298 54.8523 28.2298 55.4261V55.8991H22.8647V54.8594H26.7511C26.7482 54.5639 26.6843 54.3011 26.5593 54.071C26.4343 53.8381 26.2596 53.6548 26.0352 53.5213C25.8136 53.3878 25.555 53.321 25.2596 53.321C24.9442 53.321 24.6673 53.3977 24.4286 53.5511C24.19 53.7017 24.0039 53.9006 23.8704 54.1477C23.7397 54.392 23.6729 54.6605 23.6701 54.9531V55.8608C23.6701 56.2415 23.7397 56.5682 23.8789 56.8409C24.0181 57.1108 24.2127 57.3182 24.4627 57.4631C24.7127 57.6051 25.0053 57.6761 25.3406 57.6761C25.565 57.6761 25.7681 57.6449 25.9499 57.5824C26.1317 57.517 26.2894 57.4219 26.4229 57.2969C26.5565 57.1719 26.6573 57.017 26.7255 56.8324L28.1658 56.9943C28.0749 57.375 27.9016 57.7074 27.646 57.9915C27.3931 58.2727 27.0692 58.4915 26.6744 58.6477C26.2795 58.8011 25.8278 58.8778 25.3192 58.8778ZM34.7081 53.9347L33.3018 54.0881C33.2621 53.946 33.1925 53.8125 33.093 53.6875C32.9964 53.5625 32.8658 53.4616 32.701 53.3849C32.5362 53.3082 32.3345 53.2699 32.0959 53.2699C31.7749 53.2699 31.505 53.3395 31.2862 53.4787C31.0703 53.6179 30.9638 53.7983 30.9666 54.0199C30.9638 54.2102 31.0334 54.3651 31.1754 54.4844C31.3203 54.6037 31.5589 54.7017 31.8913 54.7784L33.0078 55.017C33.6271 55.1506 34.0874 55.3622 34.3885 55.652C34.6925 55.9418 34.8459 56.321 34.8487 56.7898C34.8459 57.2017 34.7251 57.5653 34.4865 57.8807C34.2507 58.1932 33.9226 58.4375 33.5021 58.6136C33.0817 58.7898 32.5987 58.8778 32.0533 58.8778C31.2521 58.8778 30.6072 58.7102 30.1186 58.375C29.63 58.0369 29.3388 57.5668 29.245 56.9645L30.7493 56.8196C30.8175 57.1151 30.9624 57.3381 31.1839 57.4886C31.4055 57.6392 31.6939 57.7145 32.049 57.7145C32.4155 57.7145 32.7095 57.6392 32.9311 57.4886C33.1555 57.3381 33.2678 57.152 33.2678 56.9304C33.2678 56.7429 33.1953 56.5881 33.0504 56.4659C32.9084 56.3437 32.6868 56.25 32.3857 56.1847L31.2692 55.9503C30.6413 55.8196 30.1768 55.5994 29.8757 55.2898C29.5746 54.9773 29.4254 54.5824 29.4283 54.1051C29.4254 53.7017 29.5348 53.3523 29.7564 53.0568C29.9808 52.7585 30.2919 52.5284 30.6896 52.3665C31.0902 52.2017 31.5518 52.1193 32.0746 52.1193C32.8416 52.1193 33.4453 52.2827 33.8857 52.6094C34.3288 52.9361 34.603 53.3778 34.7081 53.9347ZM39.0185 58.8778C38.3622 58.8778 37.7955 58.7415 37.3182 58.4688C36.8438 58.1932 36.4787 57.804 36.223 57.3011C35.9673 56.7955 35.8395 56.2003 35.8395 55.5156C35.8395 54.8423 35.9673 54.2514 36.223 53.7429C36.4815 53.2315 36.8423 52.8338 37.3054 52.5497C37.7685 52.2628 38.3125 52.1193 38.9375 52.1193C39.3409 52.1193 39.7216 52.1847 40.0795 52.3153C40.4403 52.4432 40.7585 52.642 41.0341 52.9119C41.3125 53.1818 41.5313 53.5256 41.6903 53.9432C41.8494 54.358 41.929 54.8523 41.929 55.4261V55.8991H36.5639V54.8594H40.4503C40.4474 54.5639 40.3835 54.3011 40.2585 54.071C40.1335 53.8381 39.9588 53.6548 39.7344 53.5213C39.5128 53.3878 39.2543 53.321 38.9588 53.321C38.6435 53.321 38.3665 53.3977 38.1278 53.5511C37.8892 53.7017 37.7031 53.9006 37.5696 54.1477C37.4389 54.392 37.3722 54.6605 37.3693 54.9531V55.8608C37.3693 56.2415 37.4389 56.5682 37.5781 56.8409C37.7173 57.1108 37.9119 57.3182 38.1619 57.4631C38.4119 57.6051 38.7045 57.6761 39.0398 57.6761C39.2642 57.6761 39.4673 57.6449 39.6491 57.5824C39.831 57.517 39.9886 57.4219 40.1222 57.2969C40.2557 57.1719 40.3565 57.017 40.4247 56.8324L41.8651 56.9943C41.7741 57.375 41.6009 57.7074 41.3452 57.9915C41.0923 58.2727 40.7685 58.4915 40.3736 58.6477C39.9787 58.8011 39.527 58.8778 39.0185 58.8778ZM44.7766 50.0227V58.75H43.234V50.0227H44.7766Z" fill="black"/>
</g>
<defs>
<clipPath id="clip0_226_241">
<rect width="60" height="60" fill="white"/>
</clipPath>
</defs>
</svg>
