<svg width="60" height="60" viewBox="0 0 60 60" fill="none" xmlns="http://www.w3.org/2000/svg">
<path d="M44.9905 4.43526L40.7302 37.9273C40.6466 38.6011 40.0267 39.0736 39.3541 38.9905L23.0779 36.9386C22.4008 36.8554 21.926 36.2385 22.0095 35.5691L26.2698 2.07265C26.3534 1.39887 26.9733 0.926353 27.6459 1.00948L43.9221 3.06145C44.5992 3.14895 45.074 3.76148 44.9905 4.43526Z" fill="white"/>
<path d="M39.6798 40C39.5985 40 39.5126 39.9955 39.4313 39.9866L22.7006 37.8988C22.1854 37.8365 21.7244 37.5783 21.4081 37.1732C21.0917 36.7681 20.9516 36.2651 21.0149 35.7576L25.3941 1.6759C25.5297 0.629765 26.5059 -0.118109 27.5679 0.0154396L44.2986 2.10326C45.3607 2.2368 46.1199 3.19836 45.9843 4.24449L41.6051 38.3262C41.5418 38.8337 41.2797 39.2877 40.8684 39.5994C40.5249 39.862 40.1092 40 39.6798 40ZM27.3284 1.33757C27.0347 1.33757 26.7816 1.55125 26.7454 1.84506L22.3616 35.9268C22.3436 36.0826 22.3842 36.2339 22.4791 36.3541C22.574 36.4788 22.7141 36.5544 22.8723 36.5722L39.603 38.6601C39.7566 38.6779 39.9148 38.6378 40.0368 38.5443C40.1634 38.4508 40.2402 38.3128 40.2583 38.157L44.6421 4.07978C44.6828 3.76371 44.4523 3.46991 44.1314 3.42984L27.4052 1.34203C27.3781 1.34203 27.3555 1.33757 27.3284 1.33757Z" fill="black"/>
<path d="M34.0338 6.11701L37.9914 40.6571C38.0717 41.351 37.5809 41.9773 36.8938 42.0584L20.3539 43.9913C19.6667 44.0724 19.0465 43.5768 18.9662 42.8829L15.0086 8.34279C14.9283 7.64892 15.4191 7.02264 16.1062 6.94154L32.6461 5.00863C33.3333 4.92752 33.9535 5.42765 34.0338 6.11701Z" fill="white"/>
<path d="M20.0365 45C19.0509 45 18.1937 44.2764 18.0791 43.2983L14.013 9.05918C13.8892 8.00512 14.6639 7.04932 15.7458 6.92872L32.7343 5.01265C33.8162 4.89206 34.7972 5.64688 34.9209 6.70094L38.987 40.9401C39.1108 41.9941 38.3361 42.9499 37.2542 43.0705L20.2611 44.9866C20.1877 44.9955 20.1098 45 20.0365 45ZM32.959 6.33916C32.936 6.33916 32.9131 6.33916 32.8902 6.34363L15.897 8.2597C15.7366 8.27756 15.5945 8.35349 15.4982 8.47855C15.402 8.60361 15.3561 8.751 15.3745 8.90732L19.4405 43.142C19.4772 43.4591 19.7752 43.6914 20.1006 43.6512L37.0938 41.7351C37.4193 41.6994 37.6576 41.409 37.6164 41.0919L33.5503 6.8528C33.5182 6.55802 33.2569 6.33916 32.959 6.33916Z" fill="black"/>
<path d="M28.518 35.0774L28.9916 39.1665C29.0698 39.8357 28.5918 40.4397 27.9226 40.518L23.8335 40.9916C23.1643 41.0698 22.5603 40.5918 22.482 39.9226L22.0084 35.8335C21.9302 35.1643 22.4082 34.5603 23.0774 34.482L27.1665 34.0084C27.8357 33.9302 28.4441 34.4082 28.518 35.0774Z" fill="white"/>
<path d="M24.2561 42C23.3559 42 22.5729 41.3218 22.4682 40.4049L22.0119 36.4652C21.8988 35.4772 22.6064 34.5812 23.5946 34.4682L27.5345 34.0119C28.5227 33.8988 29.4187 34.6064 29.5318 35.5944L29.9881 39.5341C30.1012 40.5221 29.3936 41.4181 28.4054 41.5311L24.4655 41.9874C24.3943 41.9958 24.3273 42 24.2561 42ZM27.7439 35.2553C27.723 35.2553 27.702 35.2553 27.6811 35.2595L23.7411 35.7158C23.4438 35.7493 23.2261 36.0215 23.2638 36.3187L23.7202 40.2583C23.7537 40.5556 24.0258 40.7733 24.3231 40.7356L28.2631 40.2793C28.5604 40.2458 28.7781 39.9737 28.7404 39.6764L28.284 35.7368C28.2547 35.4604 28.0161 35.2553 27.7439 35.2553Z" fill="black"/>
<path d="M21.8021 31.9184C21.4893 31.9184 21.2182 31.6644 21.1807 31.3152L20.0046 20.2679C19.9629 19.8961 20.209 19.5559 20.5551 19.5151C20.8971 19.4698 21.2099 19.7373 21.2474 20.1137L22.4235 31.161C22.4652 31.5329 22.2192 31.873 21.873 31.9138C21.8522 31.9184 21.8271 31.9184 21.8021 31.9184ZM24.4838 32C24.171 32 23.8999 31.746 23.8624 31.3968L22.3026 16.7578C22.2609 16.386 22.5069 16.0458 22.8531 16.005C23.1951 15.9597 23.5079 16.2272 23.5454 16.6036L25.1052 31.2427C25.1469 31.6145 24.9008 31.9547 24.5547 31.9955C24.5297 32 24.5088 32 24.4838 32ZM27.374 31.6372C27.0612 31.6372 26.7901 31.3832 26.7526 31.034L25.7808 21.9187C25.7391 21.5468 25.9852 21.2067 26.3313 21.1659C26.6733 21.1205 26.9861 21.3881 27.0237 21.7645L27.9954 30.8799C28.0371 31.2517 27.791 31.5919 27.4449 31.6327C27.4199 31.6372 27.3948 31.6372 27.374 31.6372Z" fill="black"/>
<path d="M17.6539 11C17.3272 11 17.044 10.7466 17.0048 10.3981C16.9612 10.027 17.2183 9.68762 17.5799 9.6469L19.549 9.41157C19.9062 9.36632 20.2329 9.63332 20.2721 10.0089C20.3113 10.3845 20.0586 10.7194 19.6971 10.7602L17.728 10.9955C17.7062 11 17.6801 11 17.6539 11ZM21.5616 10.5339C21.2349 10.5339 20.9517 10.2805 20.9125 9.932C20.8689 9.56091 21.126 9.2215 21.4875 9.18078L23.4566 8.94545C23.8139 8.9002 24.1406 9.1672 24.1798 9.54281C24.2234 9.9139 23.9663 10.2533 23.6048 10.294L21.6357 10.5294C21.6139 10.5294 21.5877 10.5339 21.5616 10.5339ZM25.4693 10.0632C25.1426 10.0632 24.8594 9.80981 24.8202 9.46135C24.7766 9.09027 25.0337 8.75086 25.3952 8.71013L27.3643 8.47481C27.7216 8.42955 28.0483 8.69655 28.0875 9.07217C28.1311 9.44325 27.874 9.78266 27.5125 9.82339L25.5434 10.0587C25.5216 10.0587 25.4954 10.0632 25.4693 10.0632ZM29.377 9.59259C29.0503 9.59259 28.7671 9.33917 28.7279 8.99071C28.6843 8.61962 28.9414 8.28021 29.3029 8.23949L31.272 8.00416C31.6293 7.96343 31.956 8.22591 31.9952 8.60152C32.0388 8.97261 31.7817 9.31201 31.4201 9.35274L29.4511 9.58806C29.4249 9.59259 29.4031 9.59259 29.377 9.59259Z" fill="black"/>
<path d="M23.4695 59V50.2727H26.9126C27.5746 50.2727 28.1385 50.3991 28.6044 50.652C29.0703 50.902 29.4254 51.25 29.6697 51.696C29.9169 52.1392 30.0405 52.6506 30.0405 53.2301C30.0405 53.8097 29.9155 54.321 29.6655 54.7642C29.4155 55.2074 29.0533 55.5526 28.5788 55.7997C28.1072 56.0469 27.5362 56.1705 26.8658 56.1705H24.6712V54.6918H26.5675C26.9226 54.6918 27.2152 54.6307 27.4453 54.5085C27.6783 54.3835 27.8516 54.2116 27.9652 53.9929C28.0817 53.7713 28.1399 53.517 28.1399 53.2301C28.1399 52.9403 28.0817 52.6875 27.9652 52.4716C27.8516 52.2528 27.6783 52.0838 27.4453 51.9645C27.2124 51.8423 26.9169 51.7812 26.5589 51.7812H25.3146V59H23.4695ZM31.239 59V50.2727H33.0842V57.4787H36.8256V59H31.239Z" fill="black"/>
</svg>
