<svg xmlns="http://www.w3.org/2000/svg" width="60" height="60" viewBox="0 0 60 60" fill="none">
  <path d="M49.2715 5.91211L43.5938 50.7656C43.4824 51.668 42.6563 52.3008 41.7598 52.1895L20.0684 49.4414C19.166 49.3301 18.5332 48.5039 18.6445 47.6074L24.3223 2.74805C24.4336 1.84571 25.2598 1.21289 26.1563 1.32422L47.8477 4.07227C48.75 4.18946 49.3828 5.00977 49.2715 5.91211Z" fill="white"/>
  <path d="M41.9646 53.0801C41.8591 53.0801 41.7478 53.0743 41.6423 53.0626L19.9509 50.3145C19.2829 50.2325 18.6853 49.8926 18.2751 49.3594C17.865 48.8262 17.6833 48.1641 17.7654 47.4962L23.4431 2.63678C23.6189 1.25982 24.8845 0.275449 26.2615 0.45123L47.9529 3.19928C49.3298 3.37506 50.3142 4.64068 50.1384 6.01764L44.4607 50.877C44.3786 51.545 44.0388 52.1426 43.5056 52.5528C43.0603 52.8985 42.5212 53.0801 41.9646 53.0801ZM25.9509 2.19146C25.5701 2.19146 25.2419 2.47271 25.1951 2.85943L19.5115 47.7188C19.488 47.9239 19.5408 48.1231 19.6638 48.2813C19.7869 48.4454 19.9685 48.545 20.1736 48.5684L41.865 51.3165C42.0642 51.3399 42.2693 51.2872 42.4275 51.1641C42.5915 51.0411 42.6911 50.8594 42.7146 50.6544L48.3982 5.80084C48.4509 5.38482 48.1521 4.99811 47.7361 4.94537L26.0505 2.19732C26.0154 2.19732 25.9861 2.19146 25.9509 2.19146Z" fill="black"/>
  <path d="M35.1441 8.4785L40.3414 53.3965C40.4468 54.2988 39.8023 55.1133 38.9 55.2187L17.1793 57.7324C16.2769 57.8379 15.4625 57.1933 15.357 56.291L10.1597 11.373C10.0543 10.4707 10.6988 9.65624 11.6011 9.55077L33.3218 7.0371C34.2242 6.93163 35.0386 7.58202 35.1441 8.4785Z" fill="white"/>
  <path d="M16.9922 58.623C15.7324 58.623 14.6367 57.6738 14.4902 56.3906L9.29297 11.4727C9.13476 10.0898 10.125 8.83594 11.5078 8.67773L33.2227 6.16406C34.6055 6.00586 35.8594 6.99609 36.0176 8.37891L41.2148 53.2969C41.373 54.6797 40.3828 55.9336 39 56.0918L17.2793 58.6055C17.1855 58.6172 17.0859 58.623 16.9922 58.623ZM33.5098 7.9043C33.4805 7.9043 33.4512 7.9043 33.4219 7.91016L11.7012 10.4238C11.4961 10.4473 11.3145 10.5469 11.1914 10.7109C11.0684 10.875 11.0098 11.0684 11.0332 11.2734L16.2305 56.1855C16.2773 56.6016 16.6582 56.9062 17.0742 56.8535L38.7949 54.3398C39.2109 54.293 39.5156 53.9121 39.4629 53.4961L34.2656 8.57812C34.2246 8.19141 33.8906 7.9043 33.5098 7.9043Z" fill="black"/>
  <path d="M28.2418 46.2247L28.8804 51.7384C28.9859 52.6407 28.3414 53.4551 27.439 53.5606L21.9254 54.1993C21.023 54.3048 20.2086 53.6602 20.1031 52.7579L19.4644 47.2442C19.359 46.3419 20.0035 45.5274 20.9058 45.4219L26.4195 44.7833C27.3218 44.6778 28.1422 45.3223 28.2418 46.2247Z" fill="white"/>
  <path d="M21.7324 55.0898C20.4727 55.0898 19.377 54.1406 19.2305 52.8574L18.5918 47.3437C18.4336 45.9609 19.4238 44.707 20.8066 44.5488L26.3203 43.9102C27.7031 43.752 28.957 44.7422 29.1152 46.125L29.7539 51.6387C29.9121 53.0215 28.9219 54.2754 27.5391 54.4336L22.0254 55.0723C21.9258 55.084 21.832 55.0898 21.7324 55.0898ZM26.6133 45.6504C26.584 45.6504 26.5547 45.6504 26.5254 45.6562L21.0117 46.2949C20.5957 46.3418 20.291 46.7227 20.3438 47.1387L20.9824 52.6523C21.0293 53.0684 21.4102 53.373 21.8262 53.3203L27.3398 52.6816C27.7559 52.6348 28.0605 52.2539 28.0078 51.8379L27.3691 46.3242C27.3281 45.9375 26.9941 45.6504 26.6133 45.6504Z" fill="black"/>
  <path d="M19.2594 41.912C18.8199 41.912 18.4391 41.5839 18.3864 41.1327L16.734 26.8593C16.6754 26.3788 17.0211 25.9393 17.5074 25.8866C17.9879 25.828 18.4274 26.1737 18.4801 26.66L20.1324 40.9335C20.191 41.4139 19.8453 41.8534 19.359 41.9061C19.3297 41.912 19.2946 41.912 19.2594 41.912ZM23.027 42.0175C22.5875 42.0175 22.2067 41.6893 22.1539 41.2382L19.9625 22.3241C19.9039 21.8436 20.2496 21.4042 20.736 21.3514C21.2164 21.2928 21.6559 21.6386 21.7086 22.1249L23.9 41.0389C23.9586 41.5194 23.6129 41.9589 23.1266 42.0116C23.0914 42.0175 23.0621 42.0175 23.027 42.0175ZM27.0875 41.5487C26.6481 41.5487 26.2672 41.2206 26.2145 40.7694L24.8492 28.9921C24.7907 28.5116 25.1364 28.0721 25.6227 28.0194C26.1032 27.9608 26.5426 28.3065 26.5953 28.7929L27.9606 40.5702C28.0192 41.0507 27.6735 41.4901 27.1871 41.5429C27.152 41.5487 27.1168 41.5487 27.0875 41.5487Z" fill="black"/>
  <path d="M13.7633 14.6543C13.3239 14.6543 12.943 14.3262 12.8903 13.875C12.8317 13.3946 13.1774 12.9551 13.6637 12.9024L16.3121 12.5977C16.7926 12.5391 17.2321 12.8848 17.2848 13.3711C17.3375 13.8574 16.9977 14.291 16.5114 14.3438L13.8629 14.6485C13.8336 14.6543 13.7985 14.6543 13.7633 14.6543ZM19.0192 14.0508C18.5797 14.0508 18.1989 13.7227 18.1461 13.2715C18.0875 12.791 18.4332 12.3516 18.9196 12.2988L21.568 11.9942C22.0485 11.9356 22.4879 12.2813 22.5407 12.7676C22.5992 13.2481 22.2535 13.6875 21.7672 13.7403L19.1188 14.0449C19.0895 14.0449 19.0543 14.0508 19.0192 14.0508ZM24.275 13.4414C23.8356 13.4414 23.4547 13.1133 23.402 12.6621C23.3434 12.1817 23.6891 11.7422 24.1754 11.6895L26.8239 11.3848C27.3043 11.3262 27.7438 11.6719 27.7965 12.1582C27.8551 12.6387 27.5094 13.0781 27.0231 13.1309L24.3746 13.4356C24.3453 13.4356 24.3102 13.4414 24.275 13.4414ZM29.5309 12.8321C29.0914 12.8321 28.7106 12.5039 28.6578 12.0528C28.5992 11.5723 28.9449 11.1328 29.4313 11.0801L32.0797 10.7754C32.5602 10.7227 32.9996 11.0625 33.0524 11.5488C33.111 12.0293 32.7653 12.4688 32.2789 12.5215L29.6305 12.8262C29.5953 12.8321 29.566 12.8321 29.5309 12.8321Z" fill="black"/>
</svg>