<svg
            xmlns="http://www.w3.org/2000/svg"
            width="100"
            height="114"
            viewBox="0 0 100 114"
            fill="none">
            <path
              fill-rule="evenodd"
              clip-rule="evenodd"
              d="M27.0443 88.2236C29.2853 89.409 31.781 90.0281 34.3148 90.0271C42.7541 90.0271 49.6436 83.2966 49.9546 74.9082L49.9857 0H68.627C68.6287 1.59103 68.7762 3.17853 69.0676 4.74251H55.4184V4.74509H69.0676H74.0623C74.0596 11.0144 76.3262 17.0716 80.4411 21.7921C80.4429 21.7941 80.4446 21.7962 80.4463 21.7982C84.644 24.5473 89.5505 26.0092 94.5646 26.0045V30.167C96.3194 30.5438 98.1338 30.7444 100 30.7444V49.439C90.693 49.4498 81.6186 46.5242 74.0624 41.0766V79.0608C74.0624 98.0283 58.6688 113.462 39.7476 113.462C35.0356 113.463 30.3741 112.488 26.0554 110.599C21.7398 108.711 17.8593 105.95 14.6567 102.49C14.6544 102.488 14.6521 102.487 14.6497 102.485C5.80078 96.256 0 85.955 0 74.3183C0 55.3483 15.3936 39.9124 34.3148 39.9124C35.862 39.9198 37.4069 40.0327 38.9388 40.2502V44.6757C38.9388 44.6757 38.9389 44.6757 38.9388 44.6757L38.9388 59.332C38.9388 59.332 38.9388 59.332 38.9388 59.332L38.9388 44.6757C39.0465 44.6736 39.1537 44.6699 39.2611 44.6661C39.4225 44.6605 39.5841 44.6549 39.7475 44.6549C41.2947 44.6623 42.8396 44.7752 44.3716 44.9927V64.0745C42.9097 63.6145 41.3623 63.3469 39.7475 63.3469C35.5924 63.3517 31.6088 65.0089 28.6709 67.9549C25.733 70.9008 24.0807 74.8949 24.0766 79.0608C24.0768 82.3512 25.1141 85.5574 27.0402 88.2214C27.0416 88.2222 27.043 88.2229 27.0443 88.2236ZM47.0531 92.9545C51.8518 90.4021 55.1743 85.4169 55.3899 79.6481V79.6507C55.1743 85.4177 51.8518 90.4023 47.0531 92.9545ZM34.3162 58.6044C35.2756 58.6045 36.212 58.6984 37.1217 58.872C36.1979 58.6973 35.2589 58.6075 34.3162 58.6044ZM23.2391 63.2114C23.239 63.2114 23.2391 63.2114 23.2391 63.2114V63.2114ZM7.69621 91.3359C9.28875 95.4958 11.6654 99.2696 14.6421 102.477C11.6048 99.2182 9.25951 95.4282 7.69621 91.3359ZM34.3148 108.719C34.3148 108.719 34.3149 108.719 34.3148 108.719V108.719ZM68.627 74.3157V36.3315C68.627 36.3315 68.6271 36.3315 68.627 36.3315V74.3157Z"
              fill="black" />
          </svg>