<svg
            xmlns="http://www.w3.org/2000/svg"
            width="100"
            height="100"
            viewBox="0 0 100 100"
            fill="none">
            <path
              fill-rule="evenodd"
              clip-rule="evenodd"
              d="M50 0C77.6142 0 100 22.3858 100 50C100 77.6142 77.6142 100 50 100C22.3858 100 0 77.6142 0 50C0 22.3858 22.3858 0 50 0ZM63.3206 43.6633C63.0774 41.6877 62.4702 40.1364 61.3918 38.7623C59.9915 36.993 58.202 35.9335 55.5527 35.305C53.8261 34.8861 53.1285 34.9342 52.5041 35.5046C51.9224 36.039 51.8089 37.1103 52.2534 37.8041C52.566 38.3076 52.9266 38.488 53.9296 38.6849C55.2652 38.9306 56.1883 39.2496 57.0279 39.7296C58.8101 40.7587 59.64 42.369 59.7289 44.9759C59.7704 46.2 59.8761 46.5763 60.3037 47.0105C61.0961 47.804 62.5063 47.6497 63.1045 46.7C63.324 46.3421 63.3575 46.1863 63.3806 45.3551C63.3959 44.8405 63.3738 44.0746 63.3206 43.6633ZM63.3451 31.5419C67.5822 34.9682 69.9496 39.838 70.3016 45.8908C70.4497 48.2749 70.253 49.0513 69.4119 49.4936C68.653 49.9034 67.7931 49.7685 67.2031 49.1515C66.8123 48.7503 66.6622 48.2014 66.6679 47.2296C66.6851 44.5426 66.0661 41.5419 65.0596 39.4597C63.8946 37.0364 62.0939 34.9741 59.8286 33.4663C57.8444 32.1421 55.2184 31.2475 52.6723 31.0248C51.0208 30.8803 50.4311 30.6006 50.1141 29.8089C49.9177 29.3353 49.9696 28.5165 50.1998 28.1498C50.4175 27.8116 50.906 27.4377 51.2513 27.3388C51.6173 27.2321 53.7506 27.4187 54.9092 27.649C58.0722 28.2928 60.9579 29.6166 63.3451 31.5419ZM78.0252 69.2008C77.9068 68.8548 77.6306 68.3211 77.4332 68.0147C76.1898 66.1371 69.5092 60.9089 66.1737 59.199C64.2692 58.2207 62.858 57.8946 61.812 58.2008C60.687 58.5173 60.0949 59.0409 58.2101 61.3833C57.4503 62.3222 56.6707 63.2018 56.4635 63.34C55.9503 63.6959 54.9438 63.9826 54.2333 63.9826C52.5853 63.9726 49.5953 62.9052 47.296 61.5018C45.5099 60.4148 43.2206 58.4679 41.464 56.5406C39.3916 54.2774 37.9806 52.281 36.8654 50.0277C35.4248 47.132 35.0596 45.3628 35.6615 44.0681C35.8096 43.742 36.007 43.3962 36.0956 43.2873C36.1845 43.1887 37.1122 42.4276 38.1383 41.5974C40.1515 39.9964 40.4771 39.6307 40.8521 38.5337C41.3258 37.1401 41.1976 35.717 40.4673 34.284C39.9048 33.1968 38.4345 30.8249 37.3687 29.2931C35.9576 27.277 32.4445 22.968 31.7438 22.3847C30.4807 21.357 28.8625 21.179 27.0762 21.8709C25.1915 22.6023 21.6587 25.4486 20.1488 27.4351C18.787 29.2338 18.2642 30.5086 18.1851 32.1888C18.1161 33.5723 18.2345 34.1456 18.9647 35.9147C24.6784 49.7904 33.2043 60.8693 44.9178 69.6653C51.036 74.2608 57.3812 77.7595 63.9632 80.1513C67.8018 81.5447 69.4696 81.6138 71.4333 80.4675C72.2622 79.9733 74.3148 77.8682 75.4595 76.3364C77.3542 73.7865 78.0549 72.6104 78.2522 71.6715C78.3904 71.0292 78.2818 69.9124 78.0252 69.2008ZM75.5028 37.9177C76.7048 41.0488 77.2812 43.8571 77.4076 47.281C77.4277 47.9574 77.4184 49.1966 77.3746 50.036C77.2834 51.6452 77.196 51.9649 76.7327 52.3907C75.9881 53.0894 74.5367 52.9228 73.9862 52.0808C73.6988 51.6291 73.6585 51.2982 73.714 49.4181C73.8737 43.8567 72.749 39.5023 70.0394 35.1481C66.8015 29.9242 61.9583 26.4052 55.6604 24.6835C54.0543 24.2453 52.7008 23.9783 50.5958 23.6949C49.2246 23.5154 48.9243 23.4395 48.5859 23.2312C47.5635 22.5764 47.5499 20.9184 48.5691 20.2536C49.095 19.9027 49.4828 19.887 51.197 20.1065C56.2237 20.7347 60.7091 22.2283 64.3948 24.4854C67.0365 26.1054 68.7022 27.5607 70.8467 30.1095C73.115 32.8279 74.316 34.8377 75.5028 37.9177Z"
              fill="black" />
          </svg>