<svg width="63" height="92" viewBox="0 0 63 92" fill="none" xmlns="http://www.w3.org/2000/svg">
<path d="M50.7721 0H11.3191C5.06619 0.0014375 0.00121875 5.97569 0 13.3522V78.6492C0.00121875 86.0214 5.06619 91.9969 11.3191 92H50.7719C57.0249 91.9969 62.0898 86.0216 62.091 78.6492V13.3522C62.09 5.97569 57.025 0.0014375 50.7721 0ZM57.0226 78.6492C57.0214 80.6941 56.327 82.5186 55.1923 83.8614C54.0526 85.2013 52.5057 86.0186 50.7721 86.0216H11.3191C9.58547 86.0186 8.03857 85.2013 6.89889 83.8614C5.76408 82.5186 5.06985 80.6941 5.06863 78.6492V13.3522C5.06985 11.3059 5.76408 9.48139 6.89889 8.13715C8.03857 6.79866 9.5841 5.98 11.3191 5.97838H50.7719C52.5069 5.97982 54.0525 6.79866 55.1922 8.13715C56.3268 9.48157 57.0212 11.3059 57.0224 13.3522V78.6492H57.0226Z" fill="black"/>
<path d="M12.4968 49V24.2727H22.2525C24.128 24.2727 25.7258 24.6309 27.0458 25.3473C28.3659 26.0556 29.3721 27.0416 30.0643 28.3054C30.7646 29.5611 31.1147 31.0099 31.1147 32.652C31.1147 34.294 30.7606 35.7429 30.0522 36.9986C29.3439 38.2542 28.3176 39.2322 26.9734 39.9325C25.6372 40.6328 24.0193 40.9829 22.1197 40.9829H15.9017V36.7933H21.2745C22.2807 36.7933 23.1098 36.6202 23.7617 36.2741C24.4218 35.92 24.9128 35.433 25.2348 34.8132C25.5648 34.1853 25.7298 33.4649 25.7298 32.652C25.7298 31.8309 25.5648 31.1146 25.2348 30.5028C24.9128 29.883 24.4218 29.4041 23.7617 29.066C23.1017 28.7199 22.2646 28.5469 21.2504 28.5469H17.7248V49H12.4968Z" fill="black"/>
<path d="M34.5105 49V24.2727H39.7385V44.6896H50.3393V49H34.5105Z" fill="black"/>
<path d="M49.6095 67.2612H47.694L47.4959 67.4407L43.9395 79.2706L44.0458 79.4501H46.0381L46.2337 79.2706L46.813 77.1381H50.4288L51.0228 79.2706L51.2209 79.4501H53.1959L53.3022 79.2706L49.8076 67.4407L49.6095 67.2612ZM47.4367 74.8978L48.6048 70.6314H48.6519L49.8225 74.8978H47.4367Z" fill="black"/>
<path d="M12.6927 79.2172L14.6082 79.2321L14.8076 79.0541L18.4558 67.2522L18.3509 67.0719L16.3586 67.0564L16.1616 67.2344L15.5658 69.3624L14.9248 71.5978L13.6765 75.8546L11.9396 69.3624L11.3727 67.1972L11.176 67.0162L9.20109 67.0008L9.09336 67.1795L12.496 79.0362L12.6927 79.2172ZM14.9248 71.5978L13.7235 75.8549L13.6765 75.8546L12.539 71.5793L11.9396 69.3624L13.6765 75.8546L14.9248 71.5978Z" fill="black"/>
<path d="M28.7436 72.3157L28.1941 72.2265C27.0112 72.028 26.5854 71.58 26.5854 70.8807C26.5854 70.1102 27.0556 69.5555 27.9664 69.5555C28.8177 69.5555 29.5775 69.878 30.3694 70.4868L30.5823 70.4327L31.5079 68.8024L31.4782 68.534C30.612 67.7444 29.3349 67.2612 27.9664 67.2612C25.7339 67.2612 24.3034 68.7485 24.3034 70.989C24.3034 73.1404 25.474 74.3053 27.5729 74.6467L28.1198 74.7357C29.3498 74.9328 29.716 75.3809 29.716 76.0975C29.716 76.9586 29.1073 77.5498 28.0281 77.5498C26.9341 77.5498 26.006 76.941 25.323 76.2945L25.0953 76.3135L23.9395 77.8725L23.9544 78.1776C24.7612 79.0913 26.3253 79.8444 27.9365 79.8444C30.612 79.8444 31.9954 78.2141 31.9954 76.0086C31.9957 73.8029 30.8696 72.6556 28.7436 72.3157Z" fill="black"/>
<path d="M38.7407 72.3157L38.1938 72.2265C37.0083 72.028 36.5826 71.58 36.5826 70.8807C36.5826 70.1102 37.0529 69.5555 37.9661 69.5555C38.8175 69.5555 39.5772 69.878 40.3667 70.4868L40.5795 70.4327L41.5076 68.8024L41.4754 68.534C40.6092 67.7444 39.3347 67.2612 37.9661 67.2612C35.7312 67.2612 34.3031 68.7485 34.3031 70.989C34.3031 73.1404 35.4737 74.3053 37.57 74.6467L38.1169 74.7357C39.3495 74.9328 39.7133 75.3809 39.7133 76.0975C39.7133 76.9586 39.1044 77.5498 38.0255 77.5498C36.9315 77.5498 36.0058 76.941 35.3203 76.2945L35.0927 76.3134L33.9395 77.8723L33.9544 78.1774C34.7588 79.0911 36.3255 79.8442 37.9366 79.8442C40.6095 79.8442 41.993 78.2139 41.993 76.0084C41.9928 73.8029 40.8691 72.6556 38.7407 72.3157Z" fill="black"/>
<rect x="19.9395" y="67.2612" width="2.12548" height="12" transform="rotate(0.788763 19.9395 67.2612)" fill="black"/>
</svg>
