  <svg
              xmlns="http://www.w3.org/2000/svg"
              width="63"
              height="92"
              viewBox="0 0 63 92"
              fill="none">
              <path
                d="M49.6095 63H47.694L47.4959 63.1795L43.9395 75.0094L44.0458 75.1889H46.0381L46.2337 75.0094L46.813 72.8769H50.4288L51.0228 75.0094L51.2209 75.1889H53.1959L53.3022 75.0094L49.8076 63.1795L49.6095 63ZM47.4367 70.6365L48.6048 66.3702H48.6519L49.8225 70.6365H47.4367Z"
                fill="black" />
              <path
                d="M12.6926 74.956L14.6081 74.9709L14.8075 74.7929L18.4557 62.991L18.3508 62.8106L16.3585 62.7952L16.1615 62.9732L15.5657 65.1011L14.9247 67.3366L13.6763 71.5933L11.9395 65.1011L11.3725 62.936L11.1759 62.7549L9.20097 62.7396L9.09324 62.9183L12.4959 74.775L12.6926 74.956ZM14.9247 67.3366L13.7234 71.5937L13.6763 71.5933L12.5389 67.318L11.9395 65.1011L13.6763 71.5933L14.9247 67.3366Z"
                fill="black" />
              <path
                d="M28.7436 68.0544L28.1941 67.9653C27.0112 67.7667 26.5854 67.3188 26.5854 66.6194C26.5854 65.8489 27.0556 65.2943 27.9664 65.2943C28.8177 65.2943 29.5775 65.6168 30.3694 66.2256L30.5823 66.1715L31.5079 64.5412L31.4782 64.2727C30.612 63.4832 29.3349 63 27.9664 63C25.7339 63 24.3034 64.4873 24.3034 66.7278C24.3034 68.8792 25.474 70.0441 27.5729 70.3855L28.1198 70.4745C29.3498 70.6716 29.716 71.1197 29.716 71.8363C29.716 72.6974 29.1073 73.2885 28.0281 73.2885C26.9341 73.2885 26.006 72.6798 25.323 72.0333L25.0953 72.0523L23.9395 73.6113L23.9544 73.9164C24.7612 74.8301 26.3253 75.5832 27.9365 75.5832C30.612 75.5832 31.9954 73.9529 31.9954 71.7474C31.9957 69.5417 30.8696 68.3944 28.7436 68.0544Z"
                fill="black" />
              <path
                d="M38.7407 68.0544L38.1938 67.9653C37.0083 67.7667 36.5826 67.3188 36.5826 66.6194C36.5826 65.8489 37.0529 65.2943 37.9661 65.2943C38.8175 65.2943 39.5772 65.6168 40.3667 66.2256L40.5795 66.1715L41.5076 64.5412L41.4754 64.2727C40.6092 63.4832 39.3347 63 37.9661 63C35.7312 63 34.3031 64.4873 34.3031 66.7278C34.3031 68.8792 35.4737 70.0441 37.57 70.3855L38.1169 70.4745C39.3495 70.6716 39.7133 71.1197 39.7133 71.8363C39.7133 72.6974 39.1044 73.2885 38.0255 73.2885C36.9315 73.2885 36.0058 72.6798 35.3203 72.0333L35.0927 72.0521L33.9395 73.6111L33.9544 73.9162C34.7588 74.8299 36.3255 75.583 37.9366 75.583C40.6095 75.583 41.993 73.9527 41.993 71.7472C41.9928 69.5417 40.8691 68.3944 38.7407 68.0544Z"
                fill="black" />
              <rect
                x="19.9395"
                y="63"
                width="2.12548"
                height="12"
                transform="rotate(0.788763 19.9395 63)"
                fill="black" />
              <path
                d="M50.7721 0H11.3191C5.06619 0.0014375 0.00121875 5.97569 0 13.3522V78.6492C0.00121875 86.0214 5.06619 91.9969 11.3191 92H50.7719C57.0249 91.9969 62.0898 86.0216 62.091 78.6492V13.3522C62.09 5.97569 57.025 0.0014375 50.7721 0ZM57.0226 78.6492C57.0214 80.6941 56.327 82.5186 55.1923 83.8614C54.0526 85.2013 52.5057 86.0186 50.7721 86.0216H11.3191C9.58547 86.0186 8.03857 85.2013 6.89889 83.8614C5.76408 82.5186 5.06985 80.6941 5.06863 78.6492V13.3522C5.06985 11.3059 5.76408 9.48139 6.89889 8.13715C8.03857 6.79866 9.5841 5.98 11.3191 5.97838H50.7719C52.5069 5.97982 54.0525 6.79866 55.1922 8.13715C56.3268 9.48157 57.0212 11.3059 57.0224 13.3522V78.6492H57.0226Z"
                fill="black" />
              <path
                d="M31.0468 20.64C23.3114 20.64 17.0449 28.0327 17.0425 37.1551C17.0449 46.2789 23.3114 53.6702 31.0468 53.6716C38.7798 53.6702 45.0487 46.2789 45.0487 37.1551C45.0487 28.0327 38.7798 20.64 31.0468 20.64ZM22.8486 27.4868C24.0564 26.0623 25.5277 24.9531 27.166 24.267C26.3827 25.3879 25.7256 26.8272 25.2133 28.4852H22.0813C22.3201 28.1378 22.5788 27.8049 22.8486 27.4868ZM21.1903 29.9521H24.8113C24.3472 31.9007 24.0687 34.0943 24.0168 36.4225H19.4666C19.5743 34.0533 20.1917 31.848 21.1903 29.9521ZM19.4666 37.8877H24.0229C24.0736 40.2171 24.3434 42.4093 24.8111 44.3595H21.1902C20.1917 42.462 19.5743 40.2581 19.4666 37.8877ZM22.8486 46.8246C22.5788 46.5064 22.3201 46.1707 22.0814 45.8248H25.2134C25.4386 46.5457 25.6813 47.2246 25.9572 47.8506C26.3161 48.6738 26.7195 49.4067 27.165 50.0444C25.5253 49.3571 24.0552 48.2506 22.8486 46.8246ZM30.4268 50.8108C30.2313 50.7991 30.0395 50.7817 29.8451 50.7612C29.542 50.5977 29.2388 50.3788 28.9393 50.0899C28.0286 49.2112 27.1834 47.7268 26.5387 45.825H30.4268V50.8108ZM30.4268 44.3595H26.1068C25.6155 42.4562 25.3123 40.2493 25.2616 37.8877H30.4268V44.3595ZM30.4268 36.4223H25.2642C25.3149 34.0607 25.6207 31.8538 26.113 29.952H30.4268V36.4223ZM30.4268 28.4852H26.5461C26.7058 28.0108 26.8754 27.5512 27.0597 27.1307C27.6116 25.8725 28.2588 24.877 28.9393 24.2203C29.2388 23.9342 29.542 23.7154 29.8451 23.5519C30.0394 23.5315 30.2312 23.5139 30.4268 23.5008V28.4852ZM42.6247 36.4223H38.0682C38.0199 34.0957 37.7477 31.9005 37.2824 29.952H40.9007C41.8993 31.848 42.5194 34.0533 42.6247 36.4223ZM39.2463 27.4868C39.5159 27.8051 39.771 28.1378 40.0135 28.4852H36.8778C36.6563 27.7671 36.4099 27.084 36.134 26.4592C35.7776 25.6389 35.3729 24.9033 34.9287 24.267C36.5672 24.9559 38.0373 26.0623 39.2463 27.4868ZM31.6681 23.5006C31.8623 23.5138 32.0541 23.5314 32.2459 23.5517C32.5491 23.7152 32.8523 23.934 33.1518 24.2201C34.0637 25.0973 34.9115 26.5817 35.5524 28.485H31.6679V23.5006H31.6681ZM31.6681 29.9521H35.9843C36.478 31.854 36.7788 34.0609 36.8332 36.4225H31.6679V29.9521H31.6681ZM31.6681 37.8877H36.8271C36.7739 40.2524 36.4707 42.4562 35.9819 44.3595H31.6681V37.8877ZM33.1518 50.0897C32.8523 50.3787 32.5491 50.5975 32.2459 50.761C32.0541 50.7815 31.8623 50.7989 31.6681 50.8106V45.8248H35.5463C35.3854 46.3006 35.2171 46.7617 35.034 47.1793C34.482 48.4391 33.8324 49.433 33.1518 50.0897ZM39.2463 46.8246C38.0361 48.2506 36.5659 49.3571 34.925 50.0444C35.7121 48.9219 36.3655 47.4859 36.8778 45.8248H40.0135C39.771 46.1707 39.5161 46.5064 39.2463 46.8246ZM40.9007 44.3595H37.2798C37.7439 42.4095 38.0223 40.2171 38.0743 37.8877H42.6245C42.5194 40.2581 41.8993 42.462 40.9007 44.3595Z"
                fill="black" />
            </svg>