<svg width="61" height="61" viewBox="0 0 61 61" fill="none" xmlns="http://www.w3.org/2000/svg">
<g clip-path="url(#clip0_75_590)">
<path d="M60.0959 16.1273L25.2495 39.8824V55.2282L60.0959 30.9765V16.1273Z" fill="black"/>
<path d="M22.4935 39.348L0.153025 30.3842L0.0957031 47.3847L22.4935 55.7793V39.348Z" fill="black"/>
<path d="M24.0205 36.8131L59.1579 12.8154L36.1582 4.25714L0.887207 27.2406L24.0205 36.8131ZM34.4984 24.2198L25.3053 30.5119C23.9771 31.4207 21.9673 31.6831 20.8511 31.1011L18.8916 30.0784C17.8422 29.5316 18.0576 28.407 19.3402 27.5662L28.2452 21.7286C29.4235 20.9556 31.2694 20.6745 32.3986 21.1009L34.5021 21.8962C35.6977 22.3493 35.7118 23.3895 34.4984 24.2198ZM46.3808 11.8081L48.6024 12.389C49.8638 12.7194 50.049 13.5766 48.9842 14.3064L40.9402 19.8113C39.7819 20.6042 37.8362 20.8959 36.6287 20.4625L34.5053 19.7012C33.3656 19.2924 33.3807 18.3624 34.5086 17.6234L42.3571 12.4781C43.3976 11.7952 45.1861 11.4955 46.3808 11.8081ZM25.7609 15.0466L33.346 10.3159C34.3555 9.68694 36 9.39886 37.0446 9.67176L38.984 10.179C40.0828 10.467 40.1589 11.2413 39.1246 11.91L31.3417 16.9452C30.2241 17.6678 28.4486 17.9502 27.4038 17.5765L25.5627 16.917C24.5745 16.5611 24.6739 15.7248 25.7609 15.0466ZM11.2012 24.1261L19.7337 18.8052C20.8663 18.099 22.5577 17.8261 23.5367 18.1961L25.358 18.8848C26.3912 19.2748 26.3068 20.2036 25.1402 20.9591L16.33 26.6583C15.0616 27.4793 13.2344 27.7383 12.2786 27.2393L10.5967 26.3621C9.69265 25.8911 9.97485 24.8909 11.2012 24.1261Z" fill="black"/>
</g>
<defs>
<clipPath id="clip0_75_590">
<rect width="60" height="60" fill="white" transform="translate(0.0957031 0.0182343)"/>
</clipPath>
</defs>
</svg>
